<svg xmlns="http://www.w3.org/2000/svg" viewBox="0 0 100 100" preserveAspectRatio="xMidYMid" width="455" height="455" xmlns:xlink="http://www.w3.org/1999/xlink" style="shape-rendering:auto;display:block;background-position-x:0%;background-position-y:0%;background-size:auto;background-origin:padding-box;background-clip:border-box;background:scroll rgba(0, 0, 0, 0) none  repeat;width:455px;height:455px;;animation:none"><g><g transform="matrix(1,0,0,1,88,50)" style="transform:matrix(1, 0, 0, 1, 88, 50);;animation:none"><g transform="matrix(1,0,0,1,0,0)" style="transform:matrix(1, 0, 0, 1, 0, 0);;animation:none"><circle fill-opacity="0.333334" fill="#d2deeb" r="6" cy="0" cx="0" transform="matrix(1.1666669845581055,0,0,1.1666669845581055,0,0)" style="fill:rgb(210, 222, 235);transform:matrix(1.16667, 0, 0, 1.16667, 0, 0);;animation:none"></circle></g></g>
<g transform="matrix(1,0,0,1,31,82.90896606445312)" style="transform:matrix(1, 0, 0, 1, 31, 82.909);;animation:none"><g transform="matrix(-0.4999999999999998,0.8660254037844387,-0.8660254037844387,-0.4999999999999998,0,0)" style="transform:matrix(-0.5, 0.866025, -0.866025, -0.5, 0, 0);;animation:none"><circle fill-opacity="0.666667" fill="#d2deeb" r="6" cy="0" cx="0" transform="matrix(1.3333334922790527,0,0,1.3333334922790527,0,0)" style="fill:rgb(210, 222, 235);transform:matrix(1.33333, 0, 0, 1.33333, 0, 0);;animation:none"></circle></g></g>
<g transform="matrix(1,0,0,1,31,17.091033935546875)" style="transform:matrix(1, 0, 0, 1, 31, 17.091);;animation:none"><g transform="matrix(-0.5000000000000004,-0.8660254037844385,0.8660254037844385,-0.5000000000000004,0,0)" style="transform:matrix(-0.5, -0.866025, 0.866025, -0.5, 0, 0);;animation:none"><circle fill-opacity="1" fill="#d2deeb" r="6" cy="0" cx="0" transform="matrix(1.5,0,0,1.5,0,0)" style="fill:rgb(210, 222, 235);transform:matrix(1.5, 0, 0, 1.5, 0, 0);;animation:none"></circle></g></g>
<g></g></g><!-- [ldio] generated by https://loading.io --></svg>