<svg width="16" height="16" viewBox="0 0 16 16" fill="none" xmlns="http://www.w3.org/2000/svg">
<path d="M10.5 3L13 5.5M3 15.5L15.5 3L13 0.5L0.5 13L3 15.5ZM5.5 0.5C5.5 0.942027 5.67559 1.36595 5.98816 1.67851C6.30072 1.99107 6.72464 2.16667 7.16667 2.16667C6.72464 2.16667 6.30072 2.34226 5.98816 2.65482C5.67559 2.96738 5.5 3.39131 5.5 3.83333C5.5 3.39131 5.3244 2.96738 5.01184 2.65482C4.69928 2.34226 4.27536 2.16667 3.83333 2.16667C4.27536 2.16667 4.69928 1.99107 5.01184 1.67851C5.3244 1.36595 5.5 0.942027 5.5 0.5ZM13.8333 8.83333C13.8333 9.27536 14.0089 9.69928 14.3215 10.0118C14.634 10.3244 15.058 10.5 15.5 10.5C15.058 10.5 14.634 10.6756 14.3215 10.9882C14.0089 11.3007 13.8333 11.7246 13.8333 12.1667C13.8333 11.7246 13.6577 11.3007 13.3452 10.9882C13.0326 10.6756 12.6087 10.5 12.1667 10.5C12.6087 10.5 13.0326 10.3244 13.3452 10.0118C13.6577 9.69928 13.8333 9.27536 13.8333 8.83333Z" stroke="#F3F4F6" stroke-linecap="round" stroke-linejoin="round"/>
</svg>
